<?xml version="1.0"?>
<!-- Generator: libbsvg 0.5.0 - a native SVG-Library for BeOS -->
<!DOCTYPE svg PUBLIC "-//W3C//DTD SVG 1.1//EN" "http://www.w3.org/Graphics/SVG/1.1/DTD/svg11.dtd">
<svg xmlns="http://www.w3.org/2000/svg" width="32.01" height="32.00" viewBox="0.00 32.01
	32.01 32.00">
	<g id="Layer_1">
		<g id="Layer_1_1_">
			<path fill="none" d=" M32.00 32.00 H0.00 V0.00 H32.00 V32.00 Z" />
			<g>
				<radialGradient id="XMLID_1_" gradientUnits="userSpaceOnUse" cx="31.00" cy="1.00"
					fx="31.00" fy="1.00" r="30.00">
					<stop stop-color="#ffffff" offset="0.00" />
					<stop stop-color="#f2f2f2" offset="1.00" />
				</radialGradient>
				<path fill="url(#XMLID_1_)"
					opacity="0.75" d=" M31.00 10.00 C31.01 5.03 25.63 1.00 19.01 1.00
					C12.37 1.00 7.00 5.03 7.01 10.00 C7.01 14.32 11.07 17.93 16.49 18.80
					C16.55 20.06 16.11 21.89 14.01 24.00 C14.01 24.00 20.57 23.98 21.79
					18.75 C27.07 17.80 31.00 14.25 31.01 10.00 L31.00 10.00 Z" />
				<path d=" M19.00 0.00 C11.83 0.00 6.00 4.49 6.01 10.00 C6.01 14.47 9.92 18.36
					15.42 19.58 C15.24 20.78 14.54 22.05 13.29 23.29 L11.58 25.01 L14.00
					25.00 C16.55 24.99 20.69 23.50 21.79 18.75 C21.75 18.92 21.70 19.08
					21.64 19.23 C20.13 23.97 14.00 24.00 14.01 24.00 C16.11 21.89 16.55
					20.06 16.49 18.80 C11.07 17.93 7.00 14.32 7.01 10.00 C7.01 5.03 12.37
					1.00 19.01 1.00 C25.63 1.00 31.00 5.03 31.01 10.00 C31.01 12.28 29.87
					14.36 28.01 15.95 C30.16 14.11 32.00 12.49 32.01 10.00 C32.01 4.49
					26.17 0.00 19.01 0.00 L19.00 0.00 Z" />
				<path opacity="0.25"
					d=" M29.00 10.00 C29.01 6.63 26.04 3.78 21.97 2.84 C22.78 3.35 23.57
					3.97 24.30 4.70 C26.97 7.36 28.18 10.79 27.75 13.62 C28.55 12.55 29.00
					11.31 29.01 10.00 L29.00 10.00 Z" />
			</g>
			<g>
				<path opacity="0.25"
					d=" M11.50 26.00 L10.50 26.50 H13.50 V29.50 C12.55 30.77 10.45 31.00
					9.01 31.00 C7.55 31.00 6.24 30.22 5.29 28.95 C4.34 27.68 3.75 25.93
					3.75 24.00 S4.34 20.32 5.29 19.05 C6.24 17.78 7.55 17.00 9.01 17.00
					C10.39 17.00 12.33 17.47 13.37 20.15 C13.19 20.64 12.90 21.09 12.50
					21.50 L15.50 19.50 C13.50 16.50 11.07 16.50 9.01 16.50 C6.93 16.50
					5.05 17.34 3.70 18.69 C2.34 20.06 1.50 21.93 1.50 24.00 S2.34 27.94
					3.70 29.31 C5.05 30.66 6.93 31.50 9.01 31.50 C12.50 31.50 15.50 30.50
					15.50 29.50 L15.50 26.50 L16.00 26.00 H11.50 Z" />
				<linearGradient id="XMLID_2_" gradientUnits="userSpaceOnUse" x1="8.25" y1="31.00"
					x2="8.25" y2="16.00">
					<stop stop-color="#0033cc" offset="0.00" />
					<stop stop-color="#3366ff" offset="0.99" />
				</linearGradient>
				<path fill="url(#XMLID_2_)" d=" M11.00 25.50 L10.00 26.00 H13.00 V29.00 C12.05
					30.27 9.95 30.50 8.50 30.50 S5.74 29.72 4.79 28.45 C3.84 27.18 3.25
					25.43 3.25 23.50 S3.84 19.82 4.79 18.55 S7.05 16.50 8.50 16.50 C9.89
					16.50 11.83 16.97 12.87 19.65 C12.60 20.39 12.00 21.00 12.01 21.00
					L15.00 19.00 C13.01 16.00 10.57 16.00 8.50 16.00 S4.55 16.84 3.20
					18.19 C1.84 19.56 1.00 21.43 1.01 23.50 C1.01 25.57 1.84 27.44 3.20
					28.81 C4.55 30.16 6.43 31.00 8.50 31.00 C12.01 31.00 15.00 30.00 15.01
					29.00 L15.00 26.00 L15.50 25.50 H11.00 Z" />
			</g>
			<g>
				<path opacity="0.25"
					d=" M24.71 11.50 L27.35 8.85 L26.65 8.15 L23.50 11.29 V6.50 H22.50
					V14.50 H23.50 V11.71 L26.65 14.85 L27.35 14.15 L24.71 11.50 Z" />
				<path opacity="0.25"
					d=" M20.50 6.50 V14.50 H21.50 V6.50 H20.50 Z" />
				<path opacity="0.25"
					d=" M18.00 9.00 H16.51 C16.13 9.00 15.74 9.17 15.45 9.47 C15.16 9.76
					15.00 10.14 15.01 10.51 L16.01 10.49 C16.01 10.39 16.07 10.27 16.16
					10.17 C16.27 10.06 16.40 10.00 16.51 10.00 L18.00 10.00 C18.23 10.00
					18.50 10.28 18.50 10.50 L18.50 11.00 H16.51 C15.73 11.00 15.01 11.72
					15.01 12.49 L15.01 12.99 C15.00 13.36 15.16 13.74 15.45 14.03 C15.74
					14.33 16.13 14.50 16.51 14.50 C16.88 14.50 17.84 14.29 18.50 14.13
					L18.50 14.50 H19.50 V10.50 C19.50 9.73 18.77 9.00 18.01 9.00 Z M18.50
					13.11 C17.72 13.29 16.76 13.50 16.51 13.50 C16.40 13.50 16.27 13.44
					16.16 13.33 C16.07 13.23 16.01 13.11 16.01 13.01 C16.01 13.00 16.01
					13.00 16.01 13.00 L16.01 12.50 C16.01 12.27 16.28 12.00 16.51 12.00
					L18.50 12.00 V13.11 Z" />
				<path opacity="0.25"
					d=" M14.50 9.50 V8.50 H12.50 V6.50 H11.50 V8.50 H10.50 V9.50 H11.50
					V13.00 C11.50 13.77 12.23 14.50 13.01 14.50 C13.78 14.50 14.50 13.78
					14.50 13.00 L13.50 13.00 C13.50 13.23 13.23 13.50 13.01 13.50 C12.78
					13.50 12.50 13.22 12.50 13.00 L12.50 9.50 H14.50 Z" />
			</g>
			<g>
				<linearGradient id="XMLID_3_" gradientUnits="userSpaceOnUse" x1="24.43" y1="14.35"
					x2="24.43" y2="6.00">
					<stop stop-color="#006600" offset="0.00" />
					<stop stop-color="#00cc00" offset="1.00" />
				</linearGradient>
				<path fill="url(#XMLID_3_)" d=" M24.21 11.00 L26.85 8.35 L26.15 7.65 L23.00
					10.79 V6.00 H22.00 V14.00 H23.00 V11.21 L26.15 14.35 L26.85 13.65
					L24.21 11.00 Z" />
				<linearGradient id="XMLID_4_" gradientUnits="userSpaceOnUse" x1="20.50" y1="14.00"
					x2="20.50" y2="6.00">
					<stop stop-color="#ff9900" offset="0.00" />
					<stop stop-color="#ffff00" offset="1.00" />
				</linearGradient>
				<path fill="url(#XMLID_4_)" d=" M20.00 6.00 V14.00 H21.00 V6.00 H20.00 Z"
					/>
				<linearGradient id="XMLID_5_" gradientUnits="userSpaceOnUse" x1="16.75" y1="14.00"
					x2="16.75" y2="8.50">
					<stop stop-color="#cc0000" offset="0.00" />
					<stop stop-color="#ff0000" offset="1.00" />
				</linearGradient>
				<path fill="url(#XMLID_5_)" d=" M17.50 8.50 H16.01 C15.63 8.50 15.24 8.67
					14.95 8.97 C14.66 9.26 14.50 9.64 14.51 10.01 L15.51 9.99 C15.51 9.89
					15.57 9.77 15.66 9.67 C15.77 9.56 15.90 9.50 16.01 9.50 L17.50 9.50
					C17.73 9.50 18.00 9.78 18.01 10.00 L18.00 10.50 H16.01 C15.23 10.50
					14.51 11.22 14.51 11.99 L14.51 12.49 C14.50 12.86 14.66 13.24 14.95
					13.53 C15.24 13.83 15.63 14.00 16.01 14.00 C16.38 14.00 17.34 13.79
					18.01 13.63 L18.00 14.00 H19.00 V10.00 C19.01 9.23 18.27 8.50 17.50
					8.50 Z M18.00 12.61 C17.22 12.79 16.26 13.00 16.01 13.00 C15.90 13.00
					15.77 12.94 15.66 12.83 C15.57 12.73 15.51 12.61 15.51 12.51 C15.51
					12.50 15.51 12.50 15.51 12.50 L15.51 12.00 C15.51 11.77 15.78 11.50
					16.01 11.50 L18.00 11.50 V12.61 Z" />
				<linearGradient id="XMLID_6_" gradientUnits="userSpaceOnUse" x1="12.00" y1="14.00"
					x2="12.00" y2="6.00">
					<stop stop-color="#336699" offset="0.00" />
					<stop stop-color="#6699cc" offset="1.00" />
				</linearGradient>
				<path fill="url(#XMLID_6_)" d=" M14.00 9.00 V8.00 H12.00 V6.00 H11.00 V8.00
					H10.00 V9.00 H11.00 V12.50 C11.01 13.27 11.73 14.00 12.50 14.00 C13.28
					14.00 14.00 13.28 14.01 12.50 L13.00 12.50 C13.01 12.73 12.73 13.00
					12.50 13.00 C12.28 13.00 12.00 12.72 12.01 12.50 L12.00 9.00 H14.00
					Z" />
			</g>
		</g>
	</g>
</svg>