<?xml version="1.0" encoding="UTF-8" standalone="yes"?>
<svg width="64" height="64" color-interpolation="linearRGB">
 <g>
  <path style="fill:#32a02b"
        d="M31.59 31.68C31.59 31.68 39.8 -2.03 51.34 10.62C62.88 23.28 31.59 31.68 31.59 31.68z"
        transform="matrix(0.9841,0,0,0.9841,1.0001,0.9998)"
  />
  <path style="fill:none; stroke:#000000; stroke-width:4.4957"
        d="M31.59 31.68C31.59 31.68 39.8 -2.03 51.34 10.62C62.88 23.28 31.59 31.68 31.59 31.68z"
        transform="matrix(0.9841,0,0,0.9841,1.0001,0.9998)"
  />
  <path style="fill:#32a02b"
        d="M31.45 31.15C31.45 31.15 14.13 1.08 31.22 2.28C48.31 3.48 31.45 31.15 31.45 31.15z"
        transform="matrix(0.9841,0,0,0.9841,1.0001,0.9998)"
  />
  <path style="fill:none; stroke:#000000; stroke-width:4.4957"
        d="M31.45 31.15C31.45 31.15 14.13 1.08 31.22 2.28C48.31 3.48 31.45 31.15 31.45 31.15z"
        transform="matrix(0.9841,0,0,0.9841,1.0001,0.9998)"
  />
  <linearGradient id="gradient0" gradientUnits="userSpaceOnUse" x1="16.2" y1="26.08" x2="26.91" y2="15.36">
   <stop offset="0" stop-color="#000000"/>
   <stop offset="0.0225" stop-color="#2a2320"/>
   <stop offset="0.0494" stop-color="#56392f"/>
   <stop offset="0.0793" stop-color="#7d4030"/>
   <stop offset="0.1112" stop-color="#a03c28"/>
   <stop offset="0.146" stop-color="#bd311e"/>
   <stop offset="0.1844" stop-color="#d52314"/>
   <stop offset="0.2282" stop-color="#e8160c"/>
   <stop offset="0.2802" stop-color="#f50f07"/>
   <stop offset="0.349" stop-color="#fd0602"/>
   <stop offset="0.5" stop-color="#ff0000"/>
   <stop offset="0.567" stop-color="#fb0904"/>
   <stop offset="0.6305" stop-color="#ef1209"/>
   <stop offset="0.6923" stop-color="#db1f11"/>
   <stop offset="0.7533" stop-color="#c02f1d"/>
   <stop offset="0.8136" stop-color="#9d3d29"/>
   <stop offset="0.8734" stop-color="#734031"/>
   <stop offset="0.9329" stop-color="#42312b"/>
   <stop offset="0.9905" stop-color="#0e0e0e"/>
   <stop offset="1" stop-color="#000000"/>
  </linearGradient>
  <path style="fill:url(#gradient0)"
        d="M31.31 31.42C31.31 31.42 -1.81 21.1 11.54 10.38C24.91 -0.32 31.31 31.42 31.31 31.42z"
        transform="matrix(0.9841,0,0,0.9841,1.0001,0.9998)"
  />
  <path style="fill:none; stroke:#000000; stroke-width:4.4957"
        d="M31.31 31.42C31.31 31.42 -1.81 21.1 11.54 10.38C24.91 -0.32 31.31 31.42 31.31 31.42z"
        transform="matrix(0.9841,0,0,0.9841,1.0001,0.9998)"
  />
  <path style="fill:#32a02b"
        d="M31.18 31.61C31.18 31.61 0.45 47.74 2.33 30.71C4.2 13.68 31.18 31.61 31.18 31.61z"
        transform="matrix(0.9841,0,0,0.9841,1.0001,0.9998)"
  />
  <path style="fill:none; stroke:#000000; stroke-width:4.4957"
        d="M31.18 31.61C31.18 31.61 0.45 47.74 2.33 30.71C4.2 13.68 31.18 31.61 31.18 31.61z"
        transform="matrix(0.9841,0,0,0.9841,1.0001,0.9998)"
  />
  <path style="fill:#32a02b"
        d="M30.94 31.99C30.94 31.99 17.32 63.91 8.01 49.54C-1.3 35.15 30.94 31.99 30.94 31.99z"
        transform="matrix(0.9841,0,0,0.9841,1.0001,0.9998)"
  />
  <path style="fill:none; stroke:#000000; stroke-width:4.4957"
        d="M30.94 31.99C30.94 31.99 17.32 63.91 8.01 49.54C-1.3 35.15 30.94 31.99 30.94 31.99z"
        transform="matrix(0.9841,0,0,0.9841,1.0001,0.9998)"
  />
  <path style="fill:#32a02b"
        d="M30.83 31.8C30.83 31.8 43.36 64.17 26.65 60.37C9.95 56.57 30.83 31.8 30.83 31.8z"
        transform="matrix(0.9841,0,0,0.9841,1.0001,0.9998)"
  />
  <path style="fill:none; stroke:#000000; stroke-width:4.4957"
        d="M30.83 31.8C30.83 31.8 43.36 64.17 26.65 60.37C9.95 56.57 30.83 31.8 30.83 31.8z"
        transform="matrix(0.9841,0,0,0.9841,1.0001,0.9998)"
  />
  <path style="fill:#32a02b"
        d="M31.09 32C31.09 32 63.43 44.57 49.37 54.35C35.3 64.12 31.09 32 31.09 32z"
        transform="matrix(0.9841,0,0,0.9841,1.0001,0.9998)"
  />
  <path style="fill:none; stroke:#000000; stroke-width:4.4957"
        d="M31.09 32C31.09 32 63.43 44.57 49.37 54.35C35.3 64.12 31.09 32 31.09 32z"
        transform="matrix(0.9841,0,0,0.9841,1.0001,0.9998)"
  />
  <path style="fill:#32a02b"
        d="M31.3 31.69C31.3 31.69 62.68 16.87 60.1 33.8C57.51 50.74 31.3 31.69 31.3 31.69z"
        transform="matrix(0.9841,0,0,0.9841,1.0001,0.9998)"
  />
  <path style="fill:none; stroke:#000000; stroke-width:4.4957"
        d="M31.3 31.69C31.3 31.69 62.68 16.87 60.1 33.8C57.51 50.74 31.3 31.69 31.3 31.69z"
        transform="matrix(0.9841,0,0,0.9841,1.0001,0.9998)"
  />
  <radialGradient id="gradient1" gradientUnits="userSpaceOnUse" cx="0" cy="0" r="64" gradientTransform="matrix(0.1133,0,0,0.1133,30.8344,31.8075)">
   <stop offset="0" stop-color="#ffffff"/>
   <stop offset="0.0434" stop-color="#ffffe7"/>
   <stop offset="0.1493" stop-color="#ffffb1"/>
   <stop offset="0.2594" stop-color="#ffff82"/>
   <stop offset="0.3713" stop-color="#ffff5a"/>
   <stop offset="0.4855" stop-color="#ffff3a"/>
   <stop offset="0.6026" stop-color="#ffff21"/>
   <stop offset="0.7242" stop-color="#ffff12"/>
   <stop offset="0.8526" stop-color="#ffff08"/>
   <stop offset="1" stop-color="#ffff00"/>
  </radialGradient>
  <path style="fill:url(#gradient1)"
        d="M30.83 24.55C34.89 24.55 38.08 27.74 38.08 31.8C38.08 35.86 34.89 39.05 30.83 39.05C26.77 39.05 23.58 35.86 23.58 31.8C23.58 27.74 26.77 24.55 30.83 24.55z"
        transform="matrix(0.9841,0,0,0.9841,1.0001,0.9998)"
  />
 </g>
</svg>
