<?xml version="1.0" encoding="utf-8"?>
<!-- Generator: Adobe Illustrator 11.0, SVG Export Plug-In . SVG Version: 6.0.0 Build 78)  -->
<!DOCTYPE svg PUBLIC "-//W3C//DTD SVG 1.0//EN"    "http://www.w3.org/TR/2001/REC-SVG-20010904/DTD/svg10.dtd" [
	<!ENTITY ns_flows "http://ns.adobe.com/Flows/1.0/">
	<!ENTITY ns_svg "http://www.w3.org/2000/svg">
	<!ENTITY ns_xlink "http://www.w3.org/1999/xlink">
]>
<svg  xmlns="&ns_svg;" xmlns:xlink="&ns_xlink;" xmlns:a="http://ns.adobe.com/AdobeSVGViewerExtensions/3.0/"
	 width="52.672" height="121.73" viewBox="0 0 52.672 121.73" overflow="visible" enable-background="new 0 0 52.672 121.73"
	 xml:space="preserve">

		<g id="Ebene_1">
			<g id="Layer_1_7_">
				<path d="M19.291,15.973L0,25.963v38.973c0,0,2.807,1.272,3.057,1.388c0,4.548,0,41.579,0,41.579l26.387,13.828l18.646-12.6
					c0,0-0.092-36.084-0.102-39.59c1.387-1.104,4.684-3.729,4.684-3.729V29.825l-31.629-14.76L19.291,15.973z"/>
				<g>
					<polygon points="48.662,32.378 21.137,19.533 4.01,28.403 4.01,62.352 7.066,63.739 7.066,105.477 29.184,117.067 
						44.074,107.005 43.973,67.612 48.662,63.881 "/>
				</g>
				<g>
					<g>
						<linearGradient id="XMLID_7_" gradientUnits="userSpaceOnUse" x1="48.8076" y1="79.9434" x2="3.4914" y2="93.6902">
							<stop  offset="0" style="stop-color:#FFFF00"/>
							<stop  offset="0.2385" style="stop-color:#FFFF34"/>
							<stop  offset="0.6057" style="stop-color:#FFFF7F"/>
							<stop  offset="0.8688" style="stop-color:#FFFFAD"/>
							<stop  offset="1" style="stop-color:#FFFFBF"/>
							<a:midPointStop  offset="0" style="stop-color:#FFFF00"/>
							<a:midPointStop  offset="0.4486" style="stop-color:#FFFF00"/>
							<a:midPointStop  offset="1" style="stop-color:#FFFFBF"/>
						</linearGradient>
						<polygon fill="url(#XMLID_7_)" points="7.066,61.435 7.066,105.477 29.182,117.067 44.074,107.005 43.965,63.98 
							32.098,72.725 "/>
					</g>
					<g>
						<linearGradient id="XMLID_8_" gradientUnits="userSpaceOnUse" x1="7.0664" y1="89.251" x2="44.0742" y2="89.251">
							<stop  offset="0" style="stop-color:#FFFF00"/>
							<stop  offset="0.2385" style="stop-color:#FFFF34"/>
							<stop  offset="0.6057" style="stop-color:#FFFF7F"/>
							<stop  offset="0.8688" style="stop-color:#FFFFAD"/>
							<stop  offset="1" style="stop-color:#FFFFBF"/>
							<a:midPointStop  offset="0" style="stop-color:#FFFF00"/>
							<a:midPointStop  offset="0.4486" style="stop-color:#FFFF00"/>
							<a:midPointStop  offset="1" style="stop-color:#FFFFBF"/>
						</linearGradient>
						<polygon fill="url(#XMLID_8_)" points="7.066,61.435 7.066,105.477 29.182,117.067 44.074,107.005 43.965,63.98 
							32.098,72.725 "/>
					</g>
				</g>
				<g>
					<g>
						<polygon fill="#D9D900" points="29.162,71.098 44.059,61.004 44.059,107.014 29.371,117.034 "/>
					</g>
					<g>
						<polygon fill="#D9D900" points="29.162,71.098 44.059,61.004 44.059,107.014 29.371,117.034 "/>
					</g>
				</g>
				<g>
					<g>
						<linearGradient id="XMLID_9_" gradientUnits="userSpaceOnUse" x1="36.5771" y1="70.6523" x2="36.5771" y2="85.2673">
							<stop  offset="0" style="stop-color:#9E9E00"/>
							<stop  offset="0.2385" style="stop-color:#A6A622"/>
							<stop  offset="0.6057" style="stop-color:#B2B259"/>
							<stop  offset="0.8688" style="stop-color:#BABA7E"/>
							<stop  offset="1" style="stop-color:#BDBD8D"/>
							<a:midPointStop  offset="0" style="stop-color:#9E9E00"/>
							<a:midPointStop  offset="0.4486" style="stop-color:#9E9E00"/>
							<a:midPointStop  offset="1" style="stop-color:#BDBD8D"/>
						</linearGradient>
						<polygon fill="url(#XMLID_9_)" points="29.129,74.737 44.025,64.645 44.025,80.267 29.248,87.813 "/>
					</g>
					<g>
						<linearGradient id="XMLID_10_" gradientUnits="userSpaceOnUse" x1="39.293" y1="84.6416" x2="33.9803" y2="67.8169">
							<stop  offset="0" style="stop-color:#D9D900"/>
							<stop  offset="0.2385" style="stop-color:#D1D12B"/>
							<stop  offset="0.6057" style="stop-color:#C6C663"/>
							<stop  offset="0.8688" style="stop-color:#BFBF81"/>
							<stop  offset="1" style="stop-color:#BDBD8D"/>
							<a:midPointStop  offset="0" style="stop-color:#D9D900"/>
							<a:midPointStop  offset="0.4486" style="stop-color:#D9D900"/>
							<a:midPointStop  offset="1" style="stop-color:#BDBD8D"/>
						</linearGradient>
						<polygon fill="url(#XMLID_10_)" points="29.129,74.737 44.025,64.645 44.025,80.267 29.248,87.813 "/>
					</g>
				</g>
				<g>
					
						<linearGradient id="XMLID_11_" gradientUnits="userSpaceOnUse" x1="-225.3721" y1="433.1973" x2="-246.1216" y2="439.4917" gradientTransform="matrix(1 0 0 -1 255.1436 481.5859)">
						<stop  offset="0" style="stop-color:#FFFF00"/>
						<stop  offset="0.2385" style="stop-color:#FFFF34"/>
						<stop  offset="0.6057" style="stop-color:#FFFF7F"/>
						<stop  offset="0.8688" style="stop-color:#FFFFAD"/>
						<stop  offset="1" style="stop-color:#FFFFBF"/>
						<a:midPointStop  offset="0" style="stop-color:#FFFF00"/>
						<a:midPointStop  offset="0.4486" style="stop-color:#FFFF00"/>
						<a:midPointStop  offset="1" style="stop-color:#FFFFBF"/>
					</linearGradient>
					<polygon fill="url(#XMLID_11_)" points="4.01,28.403 4.01,62.352 33.676,75.81 48.662,63.88 48.662,32.378 21.137,19.533 "/>
				</g>
				<g>
					<polygon fill="#D9D900" points="33.555,42.537 48.674,32.349 48.734,63.942 33.676,75.847 "/>
				</g>
				<path fill="#93950E" d="M16.9,73.974c-1.031-0.537-2.006,0.208-2.006,0.208l0.074,35.392l3.936,2.182V76.264
					C18.904,76.264,17.871,74.478,16.9,73.974z"/>
				<path fill="#B5A717" d="M16.75,74.787c-0.863-0.169-1.023,0.321-1.023,0.321l-0.188,34.736l2.748,1.327l-0.041-34.908
					C18.244,76.264,17.557,74.945,16.75,74.787z"/>
				<g>
					
						<linearGradient id="XMLID_12_" gradientUnits="userSpaceOnUse" x1="-225.4658" y1="451.6855" x2="-245.3641" y2="441.8852" gradientTransform="matrix(1 0 0 -1 255.1436 481.5859)">
						<stop  offset="0" style="stop-color:#FFFF00"/>
						<stop  offset="0.0962" style="stop-color:#FFFF00"/>
						<stop  offset="0.3764" style="stop-color:#FFFF41"/>
						<stop  offset="0.5454" style="stop-color:#FFFF83"/>
						<stop  offset="0.6982" style="stop-color:#FFFFB8"/>
						<stop  offset="0.8297" style="stop-color:#FFFFDF"/>
						<stop  offset="0.9347" style="stop-color:#FFFFF6"/>
						<stop  offset="1" style="stop-color:#FFFFFF"/>
						<a:midPointStop  offset="0" style="stop-color:#FFFF00"/>
						<a:midPointStop  offset="0.5" style="stop-color:#FFFF00"/>
						<a:midPointStop  offset="0.0962" style="stop-color:#FFFF00"/>
						<a:midPointStop  offset="0.5" style="stop-color:#FFFF00"/>
						<a:midPointStop  offset="0.3764" style="stop-color:#FFFF41"/>
						<a:midPointStop  offset="0.3964" style="stop-color:#FFFF41"/>
						<a:midPointStop  offset="1" style="stop-color:#FFFFFF"/>
					</linearGradient>
					<polygon fill="url(#XMLID_12_)" points="3.996,28.43 33.537,42.574 48.674,32.348 21.137,19.533 "/>
				</g>
				<polygon fill="#FFFFFF" points="3.996,28.43 4.049,30.219 33.549,44.718 33.537,42.573 35.504,41.251 5.699,27.491 "/>
				<g opacity="0.8"  a:adobe-blending-mode="multiply">
					<path opacity="0.8" fill="#666666" d="M13.891,26.451c0-3.036,2.578-5.76,7.313-6.967c0.057,0.005,22.223,10.203,22.23,10.155
						c-1.801,3.048-6.885,4.589-15.646,4.386C20.115,33.848,13.891,30.633,13.891,26.451z"/>
				</g>
				<g  a:adobe-knockout="true">
					<circle fill="#808080"  a:adobe-knockout="false" enable-background="new    " cx="24.793" cy="15.569" r="14.068"/> 
					<circle fill="#808080"  a:adobe-knockout="false" enable-background="new    " cx="24.768" cy="15.537" r="13.979"/> 
					<circle fill="#818080"  a:adobe-knockout="false" enable-background="new    " cx="24.738" cy="15.504" r="13.887"/> 
					<circle fill="#828282"  a:adobe-knockout="false" enable-background="new    " cx="24.712" cy="15.472" r="13.796"/> 
					<circle fill="#848484"  a:adobe-knockout="false" enable-background="new    " cx="24.684" cy="15.438" r="13.705"/> 
					<circle fill="#848484"  a:adobe-knockout="false" enable-background="new    " cx="24.657" cy="15.405" r="13.612"/> 
					<circle fill="#858585"  a:adobe-knockout="false" enable-background="new    " cx="24.629" cy="15.373" r="13.521"/> 
					<circle fill="#868686"  a:adobe-knockout="false" enable-background="new    " cx="24.602" cy="15.339" r="13.432"/> 
					<circle fill="#878787"  a:adobe-knockout="false" enable-background="new    " cx="24.575" cy="15.308" r="13.341"/> 
					<circle fill="#888888"  a:adobe-knockout="false" enable-background="new    " cx="24.547" cy="15.274" r="13.25"/> 
					<circle fill="#898989"  a:adobe-knockout="false" enable-background="new    " cx="24.52" cy="15.241" r="13.158"/> 
					<circle fill="#89898A"  a:adobe-knockout="false" enable-background="new    " cx="24.492" cy="15.208" r="13.066"/> 
					<circle fill="#8B8B8B"  a:adobe-knockout="false" enable-background="new    " cx="24.463" cy="15.175" r="12.977"/> 
					<circle fill="#8C8C8C"  a:adobe-knockout="false" enable-background="new    " cx="24.437" cy="15.143" r="12.886"/> 
					<circle fill="#8D8D8D"  a:adobe-knockout="false" enable-background="new    " cx="24.409" cy="15.109" r="12.794"/> 
					<circle fill="#8E8E8E"  a:adobe-knockout="false" enable-background="new    " cx="24.381" cy="15.076" r="12.703"/> 
					<circle fill="#8F8E8F"  a:adobe-knockout="false" enable-background="new    " cx="24.355" cy="15.044" r="12.611"/> 
					<circle fill="#909090"  a:adobe-knockout="false" enable-background="new    " cx="24.326" cy="15.011" r="12.521"/> 
					<circle fill="#919191"  a:adobe-knockout="false" enable-background="new    " cx="24.299" cy="14.979" r="12.43"/> 
					<circle fill="#929292"  a:adobe-knockout="false" enable-background="new    " cx="24.272" cy="14.946" r="12.339"/> 
					<circle fill="#939392"  a:adobe-knockout="false" enable-background="new    " cx="24.245" cy="14.913" r="12.247"/> 
					<circle fill="#949494"  a:adobe-knockout="false" enable-background="new    " cx="24.219" cy="14.88" r="12.156"/> 
					<circle fill="#969595"  a:adobe-knockout="false" enable-background="new    " cx="24.189" cy="14.848" r="12.064"/> 
					<circle fill="#969595"  a:adobe-knockout="false" enable-background="new    " cx="24.161" cy="14.813" r="11.976"/> 
					<circle fill="#979797"  a:adobe-knockout="false" enable-background="new    " cx="24.135" cy="14.781" r="11.883"/> 
					<circle fill="#989898"  a:adobe-knockout="false" enable-background="new    " cx="24.106" cy="14.749" r="11.792"/> 
					<circle fill="#9A9999"  a:adobe-knockout="false" enable-background="new    " cx="24.079" cy="14.715" r="11.7"/> 
					<circle fill="#9A9A9A"  a:adobe-knockout="false" enable-background="new    " cx="24.054" cy="14.684" r="11.61"/> 
					<circle fill="#9B9A9A"  a:adobe-knockout="false" enable-background="new    " cx="24.023" cy="14.65" r="11.52"/> 
					<circle fill="#9C9C9C"  a:adobe-knockout="false" enable-background="new    " cx="23.997" cy="14.617" r="11.429"/> 
					<circle fill="#9D9D9D"  a:adobe-knockout="false" enable-background="new    " cx="23.97" cy="14.584" r="11.337"/> 
					<circle fill="#9F9E9E"  a:adobe-knockout="false" enable-background="new    " cx="23.942" cy="14.551" r="11.245"/> 
					<circle fill="#9F9F9F"  a:adobe-knockout="false" enable-background="new    " cx="23.914" cy="14.52" r="11.154"/> 
					<circle fill="#A09FA0"  a:adobe-knockout="false" enable-background="new    " cx="23.889" cy="14.486" r="11.063"/> 
					<circle fill="#A1A1A1"  a:adobe-knockout="false" enable-background="new    " cx="23.859" cy="14.453" r="10.973"/> 
					<circle fill="#A2A2A2"  a:adobe-knockout="false" enable-background="new    " cx="23.832" cy="14.42" r="10.881"/> 
					<circle fill="#A4A3A3"  a:adobe-knockout="false" enable-background="new    " cx="23.804" cy="14.388" r="10.79"/> 
					<circle fill="#A4A4A4"  a:adobe-knockout="false" enable-background="new    " cx="23.777" cy="14.354" r="10.699"/> 
					<circle fill="#A5A4A5"  a:adobe-knockout="false" enable-background="new    " cx="23.75" cy="14.322" r="10.607"/> 
					<circle fill="#A6A6A6"  a:adobe-knockout="false" enable-background="new    " cx="23.723" cy="14.289" r="10.518"/> 
					<circle fill="#A7A7A7"  a:adobe-knockout="false" enable-background="new    " cx="23.694" cy="14.256" r="10.427"/> 
					<circle fill="#A8A8A8"  a:adobe-knockout="false" enable-background="new    " cx="23.667" cy="14.224" r="10.335"/> 
					<circle fill="#A9A9A9"  a:adobe-knockout="false" enable-background="new    " cx="23.64" cy="14.19" r="10.243"/> 
					<circle fill="#AAA9AA"  a:adobe-knockout="false" enable-background="new    " cx="23.613" cy="14.157" r="10.152"/> 
					<circle fill="#ABABAB"  a:adobe-knockout="false" enable-background="new    " cx="23.584" cy="14.124" r="10.063"/> 
					<circle fill="#ACACAC"  a:adobe-knockout="false" enable-background="new    " cx="23.557" cy="14.092" r="9.971"/> 
					<circle fill="#ADADAD"  a:adobe-knockout="false" enable-background="new    " cx="23.53" cy="14.06" r="9.88"/> 
					<circle fill="#ADADAD"  a:adobe-knockout="false" enable-background="new    " cx="23.503" cy="14.026" r="9.788"/> 
					<circle fill="#AFAFAF"  a:adobe-knockout="false" enable-background="new    " cx="23.475" cy="13.993" r="9.697"/> 
					<circle fill="#B0B0AF"  a:adobe-knockout="false" enable-background="new    " cx="23.448" cy="13.96" r="9.606"/> 
					<circle fill="#B1B1B1"  a:adobe-knockout="false" enable-background="new    " cx="23.42" cy="13.927" r="9.516"/> 
					<circle fill="#B2B2B2"  a:adobe-knockout="false" enable-background="new    " cx="23.393" cy="13.896" r="9.424"/> 
					<circle fill="#B3B3B3"  a:adobe-knockout="false" enable-background="new    " cx="23.366" cy="13.861" r="9.333"/> 
					<circle fill="#B4B4B4"  a:adobe-knockout="false" enable-background="new    " cx="23.338" cy="13.829" r="9.242"/> 
					<path fill="#B4B4B4"  a:adobe-knockout="false" enable-background="new    " d="M32.461,13.796
						c0,5.054-4.098,9.151-9.152,9.151c-5.053,0-9.148-4.098-9.148-9.151c0-5.055,4.098-9.15,9.148-9.15
						C28.365,4.646,32.461,8.742,32.461,13.796z"/>
					<circle fill="#B6B6B6"  a:adobe-knockout="false" enable-background="new    " cx="23.281" cy="13.764" r="9.061"/> 
					<circle fill="#B7B7B7"  a:adobe-knockout="false" enable-background="new    " cx="23.255" cy="13.73" r="8.968"/> 
					<circle fill="#B8B8B8"  a:adobe-knockout="false" enable-background="new    " cx="23.228" cy="13.698" r="8.878"/> 
					<circle fill="#B9B9B9"  a:adobe-knockout="false" enable-background="new    " cx="23.2" cy="13.665" r="8.786"/> 
					<circle fill="#BBBBBA"  a:adobe-knockout="false" enable-background="new    " cx="23.174" cy="13.632" r="8.695"/> 
					<circle fill="#BBBBBB"  a:adobe-knockout="false" enable-background="new    " cx="23.146" cy="13.6" r="8.604"/> 
					<circle fill="#BCBCBC"  a:adobe-knockout="false" enable-background="new    " cx="23.117" cy="13.566" r="8.514"/> 
					<circle fill="#BDBCBC"  a:adobe-knockout="false" enable-background="new    " cx="23.09" cy="13.534" r="8.422"/> 
					<circle fill="#BEBEBE"  a:adobe-knockout="false" enable-background="new    " cx="23.063" cy="13.5" r="8.332"/> 
					<circle fill="#BFBFBF"  a:adobe-knockout="false" enable-background="new    " cx="23.035" cy="13.468" r="8.24"/> 
					<circle fill="#C0C0C0"  a:adobe-knockout="false" enable-background="new    " cx="23.009" cy="13.436" r="8.149"/> 
					<circle fill="#C1C1C0"  a:adobe-knockout="false" enable-background="new    " cx="22.98" cy="13.402" r="8.059"/> 
					<circle fill="#C2C2C2"  a:adobe-knockout="false" enable-background="new    " cx="22.952" cy="13.369" r="7.968"/> 
					<circle fill="#C2C2C3"  a:adobe-knockout="false" enable-background="new    " cx="22.925" cy="13.336" r="7.876"/> 
					<path fill="#C4C4C4"  a:adobe-knockout="false" enable-background="new    " d="M30.682,13.303c0,4.3-3.482,7.785-7.785,7.785
						c-4.299,0-7.783-3.485-7.783-7.785c0-4.299,3.484-7.784,7.783-7.784C27.199,5.52,30.682,9.004,30.682,13.303z"/>
					<circle fill="#C5C5C5"  a:adobe-knockout="false" enable-background="new    " cx="22.871" cy="13.271" r="7.693"/> 
					<circle fill="#C6C6C6"  a:adobe-knockout="false" enable-background="new    " cx="22.843" cy="13.238" r="7.603"/> 
					<circle fill="#C7C7C7"  a:adobe-knockout="false" enable-background="new    " cx="22.815" cy="13.205" r="7.513"/> 
					<circle fill="#C8C7C7"  a:adobe-knockout="false" enable-background="new    " cx="22.788" cy="13.172" r="7.421"/> 
					<circle fill="#C9C9C8"  a:adobe-knockout="false" enable-background="new    " cx="22.76" cy="13.141" r="7.33"/> 
					<circle fill="#CACACA"  a:adobe-knockout="false" enable-background="new    " cx="22.732" cy="13.106" r="7.238"/> 
					<circle fill="#CCCBCB"  a:adobe-knockout="false" enable-background="new    " cx="22.706" cy="13.074" r="7.147"/> 
					<circle fill="#CCCCCC"  a:adobe-knockout="false" enable-background="new    " cx="22.678" cy="13.041" r="7.057"/> 
					<circle fill="#CDCDCD"  a:adobe-knockout="false" enable-background="new    " cx="22.651" cy="13.008" r="6.966"/> 
					<circle fill="#CECDCE"  a:adobe-knockout="false" enable-background="new    " cx="22.624" cy="12.976" r="6.874"/> 
					<circle fill="#CFCFCE"  a:adobe-knockout="false" enable-background="new    " cx="22.596" cy="12.942" r="6.783"/> 
					<circle fill="#D0D0D0"  a:adobe-knockout="false" enable-background="new    " cx="22.568" cy="12.909" r="6.691"/> 
					<circle fill="#D2D1D2"  a:adobe-knockout="false" enable-background="new    " cx="22.539" cy="12.877" r="6.602"/> 
					<circle fill="#D3D2D2"  a:adobe-knockout="false" enable-background="new    " cx="22.513" cy="12.844" r="6.511"/> 
					<circle fill="#D4D3D3"  a:adobe-knockout="false" enable-background="new    " cx="22.485" cy="12.812" r="6.419"/> 
					<circle fill="#D5D4D4"  a:adobe-knockout="false" enable-background="new    " cx="22.459" cy="12.778" r="6.328"/> 
					<circle fill="#D5D5D5"  a:adobe-knockout="false" enable-background="new    " cx="22.431" cy="12.746" r="6.237"/> 
					<circle fill="#D6D5D5"  a:adobe-knockout="false" enable-background="new    " cx="22.402" cy="12.712" r="6.146"/> 
					<circle fill="#D7D7D7"  a:adobe-knockout="false" enable-background="new    " cx="22.375" cy="12.681" r="6.055"/> 
					<circle fill="#D8D8D7"  a:adobe-knockout="false" enable-background="new    " cx="22.348" cy="12.647" r="5.963"/> 
					<circle fill="#D9D8D8"  a:adobe-knockout="false" enable-background="new    " cx="22.321" cy="12.614" r="5.872"/> 
					<circle fill="#DAD9D9"  a:adobe-knockout="false" enable-background="new    " cx="22.294" cy="12.581" r="5.782"/> 
					<circle fill="#DBDBDA"  a:adobe-knockout="false" enable-background="new    " cx="22.267" cy="12.548" r="5.69"/> 
					<circle fill="#DCDCDC"  a:adobe-knockout="false" enable-background="new    " cx="22.237" cy="12.517" r="5.601"/> 
					<circle fill="#DDDDDD"  a:adobe-knockout="false" enable-background="new    " cx="22.211" cy="12.482" r="5.508"/> 
					<circle fill="#DFDFDF"  a:adobe-knockout="false" enable-background="new    " cx="22.183" cy="12.45" r="5.417"/> 
					<circle fill="#E0DFDF"  a:adobe-knockout="false" enable-background="new    " cx="22.156" cy="12.417" r="5.326"/> 
					<circle fill="#E1E0E0"  a:adobe-knockout="false" enable-background="new    " cx="22.129" cy="12.384" r="5.234"/> 
					<circle fill="#E2E1E1"  a:adobe-knockout="false" enable-background="new    " cx="22.102" cy="12.352" r="5.145"/> 
					<circle fill="#E3E2E2"  a:adobe-knockout="false" enable-background="new    " cx="22.072" cy="12.318" r="5.053"/> 
					<circle fill="#E3E3E2"  a:adobe-knockout="false" enable-background="new    " cx="22.046" cy="12.286" r="4.962"/> 
					<circle fill="#E4E4E4"  a:adobe-knockout="false" enable-background="new    " cx="22.018" cy="12.253" r="4.871"/> 
					<circle fill="#E5E4E4"  a:adobe-knockout="false" enable-background="new    " cx="21.991" cy="12.22" r="4.778"/> 
					<circle fill="#E6E6E6"  a:adobe-knockout="false" enable-background="new    " cx="21.964" cy="12.188" r="4.688"/> 
					<circle fill="#E7E6E6"  a:adobe-knockout="false" enable-background="new    " cx="21.936" cy="12.154" r="4.598"/> 
					<circle fill="#E8E7E8"  a:adobe-knockout="false" enable-background="new    " cx="21.909" cy="12.122" r="4.507"/> 
					<circle fill="#EAEAE9"  a:adobe-knockout="false" enable-background="new    " cx="21.881" cy="12.088" r="4.416"/> 
					<circle fill="#EBEAEA"  a:adobe-knockout="false" enable-background="new    " cx="21.854" cy="12.057" r="4.324"/> 
					<circle fill="#ECEBEB"  a:adobe-knockout="false" enable-background="new    " cx="21.826" cy="12.023" r="4.232"/> 
					<circle fill="#EDEDED"  a:adobe-knockout="false" enable-background="new    " cx="21.797" cy="11.99" r="4.143"/> 
					<circle fill="#EEEDED"  a:adobe-knockout="false" enable-background="new    " cx="21.771" cy="11.957" r="4.052"/> 
					<circle fill="#EFEEEE"  a:adobe-knockout="false" enable-background="new    " cx="21.745" cy="11.924" r="3.96"/> 
					<circle fill="#F0F0EF"  a:adobe-knockout="false" enable-background="new    " cx="21.716" cy="11.893" r="3.868"/> 
					<circle fill="#F1F0F0"  a:adobe-knockout="false" enable-background="new    " cx="21.689" cy="11.859" r="3.777"/> 
					<circle fill="#F2F1F1"  a:adobe-knockout="false" enable-background="new    " cx="21.66" cy="11.826" r="3.688"/> 
					<circle fill="#F3F3F3"  a:adobe-knockout="false" enable-background="new    " cx="21.635" cy="11.793" r="3.596"/> 
				</g>
				<path enable-background="new    " d="M9.225,15.569c0,8.584,6.984,15.568,15.568,15.568c8.586,0,15.568-6.984,15.568-15.568
					C40.363,6.984,33.379,0,24.793,0C16.209,0,9.225,6.984,9.225,15.569z M12.225,15.569C12.225,8.64,17.863,3,24.793,3
					c6.932,0,12.568,5.64,12.568,12.569s-5.639,12.568-12.568,12.568C17.863,28.139,12.225,22.5,12.225,15.569z"/>
			</g>
		</g>
	</svg>
